<?xml version="1.0" encoding="UTF-8" standalone="no"?>
<svg width="30px" height="20px" viewBox="0 0 30 20" version="1.1" xmlns="http://www.w3.org/2000/svg" xmlns:xlink="http://www.w3.org/1999/xlink">
    <!-- Generator: Sketch 3.7.2 (28276) - http://www.bohemiancoding.com/sketch -->
    <title>card_visa</title>
    <desc>Created with Sketch.</desc>
    <defs>
        <rect id="path-1" x="0" y="0" width="30" height="20" rx="2"></rect>
        <mask id="mask-2" maskContentUnits="userSpaceOnUse" maskUnits="objectBoundingBox" x="0" y="0" width="30" height="20" fill="white">
            <use xlink:href="#path-1"></use>
        </mask>
    </defs>
    <g id="Symbols" stroke="none" stroke-width="1" fill="none" fill-rule="evenodd">
        <g id="card_visa">
            <g id="Visa">
                <use id="Rectangle-11" stroke-opacity="0.153985507" stroke="#000000" mask="url(#mask-2)" stroke-width="2" fill="#FFFFFF" xlink:href="#path-1"></use>
                <g id="Visa_Inc._logo" transform="translate(4.000000, 3.000000)">
                    <g id="svg2" transform="translate(0.500000, 0.500000)">
                        <g id="g10" transform="translate(10.534268, 5.476740) scale(1, -1) translate(-10.534268, -5.476740) translate(0.034268, 0.976740)">
                            <g id="g4163" transform="translate(0.067861, 0.080989)">
                                <g id="g12" transform="translate(6.860572, 0.232516)" fill="#2B3894">
                                    <polyline id="path14" points="0 -8.52651283e-14 0.968920312 6.03464264 2.51770462 6.03464264 1.54887289 -8.52651283e-14 0 -8.52651283e-14"></polyline>
                                </g>
                                <g id="g16" transform="translate(9.332480, 0.058820)" fill="#2B3894">
                                    <path d="M4.69489637,6.06022034 C4.38866511,6.18133562 3.90703961,6.3135019 3.30706729,6.3135019 C1.77582241,6.3135019 0.697945067,5.49448095 0.688998189,4.32182831 C0.679254064,3.45450383 1.45816395,2.97066654 2.04538033,2.68236047 C2.64889597,2.3868356 2.85166234,2.19772108 2.8492706,1.93347765 C2.8451072,1.52931443 2.36755652,1.34412122 1.92225002,1.34412122 C1.30216937,1.34412122 0.972729379,1.43529189 0.463377414,1.66058949 L0.264154358,1.75666181 L0.0475690444,0.405856521 C0.408721733,0.237774527 1.07823167,0.0918836348 1.77307634,0.0842192385 C3.40043372,0.0842192385 4.4578484,0.893258654 4.47025001,2.14549624 C4.47583074,2.83333125 4.06312277,3.35477756 3.1693208,3.78523145 C2.62807897,4.06498191 2.29589291,4.25035336 2.29970198,4.53357954 C2.30005631,4.78445484 2.58033276,5.05288695 3.18694881,5.05288695 C3.6935547,5.06108607 4.06028812,4.94371386 4.34605672,4.82108352 L4.48513195,4.75201483 L4.69489637,6.06022034" id="path18"></path>
                                </g>
                                <g id="g20" transform="translate(13.609353, 0.144019)" fill="#2B3894">
                                    <path d="M2.48032261,2.22802218 C2.60867931,2.57488068 3.09730286,3.9147241 3.09730286,3.9147241 C3.0882674,3.89886058 3.22495089,4.26434534 3.30316964,4.49053415 L3.40769752,3.97006817 C3.40769752,3.97006817 3.70489332,2.52969639 3.76610414,2.22802218 L2.48032261,2.22802218 L2.48032261,2.22802218 Z M4.39105685,6.11699034 L3.19412403,6.11699034 C2.82287288,6.11699034 2.54498817,6.01022352 2.38234987,5.6167548 L0.082293561,0.0863581398 L1.70903086,0.0863581398 C1.70903086,0.0863581398 1.97442538,0.830339307 2.03466179,0.993608773 C2.21209344,0.993608773 3.79276761,0.990489542 4.01838838,0.990489542 C4.06480585,0.779896885 4.20698148,0.0863581398 4.20698148,0.0863581398 L5.6445056,0.0863581398 L4.39105685,6.11699034 L4.39105685,6.11699034 Z" id="path22"></path>
                                </g>
                                <g id="g24" transform="translate(1.663588, 0.201859)" fill="#2B3894">
                                    <path d="M3.89764982,6.06022034 L2.38172979,1.9460437 L2.21935724,2.7823541 C1.93686621,3.74592914 1.05750326,4.79033682 0.0738781807,5.31365467 L1.46073285,0.0359157176 L3.09987177,0.0368960474 L5.53891473,6.06022034 L3.89764982,6.06022034" id="path26"></path>
                                </g>
                                <g id="g28" transform="translate(0.069183, 2.968706)" fill="#F79510">
                                    <path d="M2.56890556,3.29747283 L0.0713092751,3.29747283 L0.0506694477,3.17243623 C1.99417938,2.67255717 3.28004949,1.46594948 3.81376177,0.0155070344 L3.27101403,2.7883252 C3.17738185,3.17074293 2.90525503,3.2841047 2.56890556,3.29747283" id="path30"></path>
                                </g>
                            </g>
                        </g>
                    </g>
                </g>
            </g>
        </g>
    </g>
</svg>