<?xml version="1.0" encoding="UTF-8" standalone="no"?>
<svg width="30px" height="20px" viewBox="0 0 30 20" version="1.1" xmlns="http://www.w3.org/2000/svg" xmlns:xlink="http://www.w3.org/1999/xlink">
    <!-- Generator: Sketch 3.7.2 (28276) - http://www.bohemiancoding.com/sketch -->
    <title>card_american_express</title>
    <desc>Created with Sketch.</desc>
    <defs></defs>
    <g id="Symbols" stroke="none" stroke-width="1" fill="none" fill-rule="evenodd">
        <g id="card_american_express">
            <g id="amex">
                <rect id="Rectangle-11" fill="#52A0E0" x="0" y="0" width="30" height="20" rx="2"></rect>
                <path d="M9.4721001,13 L8.27426446,13 L7.79810619,11.6371078 L5.61819412,11.6371078 L5.16807575,13 L4,13 L6.12411228,7 L7.28846804,7 L9.4721001,13 Z M7.44470747,10.6261937 L6.69327021,8.39972715 L5.95671288,10.6261937 L7.44470747,10.6261937 Z M10.041258,13 L10.041258,7 L11.689212,7 L12.6787284,11.0927694 L13.6570849,7 L15.3087589,7 L15.3087589,13 L14.2857626,13 L14.2857626,8.27694407 L13.2032465,13 L12.1430504,13 L11.0642543,8.27694407 L11.0642543,13 L10.041258,13 Z M16.4024349,13 L16.4024349,7 L20.4460602,7 L20.4460602,8.01500682 L17.5035509,8.01500682 L17.5035509,9.34515689 L20.2414609,9.34515689 L20.2414609,10.3560709 L17.5035509,10.3560709 L17.5035509,11.9890859 L20.5502198,11.9890859 L20.5502198,13 L16.4024349,13 Z M20.9296584,13 L22.7933717,9.86903138 L21.1044978,7 L22.3916131,7 L23.4852891,8.92769441 L24.5566452,7 L25.8326006,7 L24.1362868,9.91405184 L26,13 L24.6719648,13 L23.4629692,10.9249659 L22.2502536,13 L20.9296584,13 Z" id="AMEX" fill="#FFFFFF"></path>
            </g>
        </g>
    </g>
</svg>